<?xml version="1.0" encoding="UTF-8"?>
<svg id="Layer_1" data-name="Layer 1" xmlns="http://www.w3.org/2000/svg" viewBox="0 0 297.18 144.62">
  <defs>
    <style>
      .cls-1 {
        fill: #42f442;
      }

      .cls-2 {
        fill: #fff;
      }

      .cls-3 {
        fill: #adadad;
      }
    </style>
  </defs>
  <g>
    <rect class="cls-1" x="3.61" y="28.28" width="83.46" height="64.6" rx="8.38" ry="8.38"/>
    <path d="M79.66,27.15H11.47c-5,0-9.09,4.07-9.12,9.08v49.27c.03,5,4.11,9.08,9.12,9.11h11.35v-3.07h-11.34c-3.32-.02-6.04-2.73-6.05-6.05v-24.98h80.28v24.97c-.02,3.32-2.73,6.04-6.05,6.05h-11.35v3.07h11.36c5-.03,9.08-4.11,9.11-9.12v-49.27c-.03-5-4.12-9.07-9.12-9.07ZM5.42,57.44v-12.09h80.28v12.09H5.42ZM5.42,42.28v-6.04c.02-3.32,2.73-6.01,6.05-6.01h68.19c3.32,0,6.03,2.7,6.05,6.01v6.05H5.42Z"/>
    <path class="cls-3" d="M25.07,72.54s-.25,14.18,0,18,6.84,21.08,20.5,23.55c0,0,16.98-2.96,20.43-23.67v-19.36l-20.27-5.92-20.66,7.4Z"/>
    <path d="M23.73,70.22v17.21c.04,6.43,2.11,12.54,5.99,17.67,3.88,5.13,9.19,8.79,15.37,10.58l.42.12.42-.12c6.29-1.77,11.7-5.46,15.66-10.65s6.08-11.39,6.13-17.93v-17.23l-22.23-6.33-21.77,6.68ZM64.65,72.19v14.9c-.09,11.72-7.94,22.15-19.14,25.52-10.97-3.38-18.65-13.68-18.72-25.18v-14.93l18.73-5.75,19.12,5.45Z"/>
  </g>
  <g>
    <path class="cls-2" d="M158.28,24.15h-12.09c-.4-5.73-3.74-8.59-11.14-8.59-4.61,0-8.67,1.99-8.67,6.44,0,4.14,2.39,4.85,15.12,8.11,2.63.64,5.57,1.35,8.11,2.39,5.89,2.39,10.58,6.84,10.58,14.64,0,10.74-8.51,18.22-23.63,18.22-11.85,0-24.19-5.73-24.19-19.81v-.4h12.09c0,8.04,6.6,10.5,12.49,10.5s11.14-1.91,11.14-7.08c0-3.58-2.94-5.89-9.94-7.64-4.22-1.11-7.8-1.91-11.46-3.1-8.59-2.86-12.41-7.64-12.41-14.88,0-11.46,10.82-17.11,21.24-17.11,12.17,0,22.75,5.41,22.75,18.3Z"/>
    <path class="cls-2" d="M175.94,22.88v23.31c0,6.29,1.67,10.02,7.24,10.02,6.21,0,8.75-3.58,8.75-11.7v-21.64h11.3v41.13h-10.74v-5.73h-.24c-2.86,4.61-7.64,6.84-12.65,6.84-10.74,0-14.96-5.41-14.96-16.71v-25.54h11.3Z"/>
    <path class="cls-2" d="M221.37,7.21v20.69h.16c2.47-3.74,7.16-6.13,12.97-6.13,8.27,0,17.03,6.68,17.03,21.64s-8.19,21.72-17.11,21.72c-6.6,0-11.22-2.23-13.45-6.37h-.16v5.25h-10.74V7.21h11.3ZM230.6,56.61c6.36,0,9.63-5.81,9.63-13.13s-3.1-13.21-9.71-13.21c-6.21,0-9.55,5.65-9.55,13.21s3.42,13.13,9.63,13.13Z"/>
    <path class="cls-2" d="M128.45,79.18v23.55l22.2-23.55h15.59l-22.2,22.44,24.35,34.37h-15.67l-17.11-25.54-7.16,7.24v18.3h-12.49v-56.81h12.49Z"/>
    <path class="cls-2" d="M182.07,79.18v9.31h-11.3v-9.31h11.3ZM182.07,94.86v41.13h-11.3v-41.13h11.3Z"/>
    <path class="cls-2" d="M200.84,79.18v56.81h-11.3v-56.81h11.3Z"/>
    <path class="cls-2" d="M219.62,79.18v56.81h-11.3v-56.81h11.3Z"/>
    <path class="cls-2" d="M264.88,108.78c.72,2.71.95,5.25.95,7.24l-.08,2.15h-29.68c.32,7.08,3.82,10.42,10.02,10.42,4.3,0,8.12-2.47,8.99-5.33h9.95c-3.1,9.31-9.39,13.84-19.25,13.84-13.05,0-21-8.99-21-21.64s8.59-21.72,21-21.72c10.5,0,16.87,6.6,19.09,15.04ZM254.46,111.01c-1.11-6.21-3.82-8.75-9.07-8.75s-8.83,3.34-9.31,8.75h18.38Z"/>
    <path class="cls-2" d="M297.18,94.14v10.5c-1.11-.24-2.47-.4-4.06-.4-8.19,0-11.14,5.81-11.14,13.21v18.54h-11.3v-41.13h10.74v7.64h.16c2.15-5.17,7.48-8.75,13.13-8.75,1.11,0,1.91.24,2.47.4Z"/>
  </g>
</svg>